<?xml version="1.0" encoding="UTF-8"?>
<svg version="1.1" xmlns="http://www.w3.org/2000/svg" width="298" height="294">
<path d="M0 0 C98.34 0 196.68 0 298 0 C298 97.02 298 194.04 298 294 C199.66 294 101.32 294 0 294 C0 196.98 0 99.96 0 0 Z " fill="#E9E7DF" transform="translate(0,0)"/>
<path d="M0 0 C0.79857422 0.00064453 1.59714844 0.00128906 2.41992188 0.00195312 C15.80646439 0.10014292 15.80646439 0.10014292 20.4375 3.1875 C20.4375 3.8475 20.4375 4.5075 20.4375 5.1875 C21.6440625 5.249375 21.6440625 5.249375 22.875 5.3125 C27.0980555 6.3497417 29.79410526 8.21104054 33.3125 10.6953125 C35.54286081 12.31062382 35.54286081 12.31062382 38.5 13.9375 C39.139375 14.35 39.77875 14.7625 40.4375 15.1875 C40.4375 15.8475 40.4375 16.5075 40.4375 17.1875 C41.0975 17.1875 41.7575 17.1875 42.4375 17.1875 C43.45616229 18.84282623 44.45560813 20.51010138 45.4375 22.1875 C46.0975 22.5175 46.7575 22.8475 47.4375 23.1875 C48.0625 26.25 48.0625 26.25 48.4375 29.1875 C49.0975 29.1875 49.7575 29.1875 50.4375 29.1875 C56.60879314 38.3380381 57.52502203 49.52849481 59.4375 60.1875 C60.2531543 60.20208252 61.06880859 60.21666504 61.90917969 60.23168945 C64.99596423 60.29350378 68.08215219 60.36778478 71.16845703 60.44995117 C73.13683525 60.4987441 75.10554034 60.53373438 77.07421875 60.56835938 C87.42762684 60.85741392 96.69975176 62.67109091 106.4375 66.1875 C106.4375 66.8475 106.4375 67.5075 106.4375 68.1875 C107.05625 68.331875 107.675 68.47625 108.3125 68.625 C110.4375 69.1875 110.4375 69.1875 112.4375 70.1875 C112.4375 70.8475 112.4375 71.5075 112.4375 72.1875 C113.00597656 72.28675781 113.57445312 72.38601562 114.16015625 72.48828125 C123.26648125 75.2842198 129.95362012 84.61375152 134.23828125 92.62890625 C137.58333932 99.76575653 140.08616158 107.2823855 140.4375 115.1875 C140.51484375 116.54101562 140.51484375 116.54101562 140.59375 117.921875 C140.82793524 125.45483342 139.56051612 131.98589631 137.4375 139.1875 C137.23640625 139.91453125 137.0353125 140.6415625 136.828125 141.390625 C136.10007554 144.01601549 135.29912695 146.60261916 134.4375 149.1875 C133.7775 149.1875 133.1175 149.1875 132.4375 149.1875 C132.334375 149.88875 132.23125 150.59 132.125 151.3125 C131.33178228 154.62959227 130.1715914 157.25288379 128.4375 160.1875 C127.4475 160.5175 126.4575 160.8475 125.4375 161.1875 C125.1075 161.8475 124.7775 162.5075 124.4375 163.1875 C121.875 163.8125 121.875 163.8125 119.4375 164.1875 C119.4375 164.8475 119.4375 165.5075 119.4375 166.1875 C116.8760343 168.48398649 115.95782428 169.1875 112.4375 169.1875 C112.06044922 170.11175781 112.06044922 170.11175781 111.67578125 171.0546875 C110.22931364 173.54607966 109.21358068 174.13452256 106.625 175.3125 C105.91730469 175.63992187 105.20960938 175.96734375 104.48046875 176.3046875 C102.14908007 177.3121327 99.8157951 178.29563934 97.4375 179.1875 C95.3020198 175.62836634 94.9899022 172.26146623 94.4375 168.1875 C93.97528808 166.51817212 93.51019903 164.84950628 93.02148438 163.18774414 C92.39602472 161.04544024 91.80476409 158.89560442 91.21875 156.7421875 C91.00863281 155.97519531 90.79851562 155.20820313 90.58203125 154.41796875 C90.15035457 152.84038671 89.72068465 151.26225425 89.29296875 149.68359375 C88.41710315 146.49716245 87.53828975 143.43467486 86.2890625 140.37109375 C85.08701952 137.28879087 85.30923853 134.45816758 85.4375 131.1875 C84.7775 131.1875 84.1175 131.1875 83.4375 131.1875 C83.4375 129.8675 83.4375 128.5475 83.4375 127.1875 C82.7775 127.1875 82.1175 127.1875 81.4375 127.1875 C80.7775 125.2075 80.1175 123.2275 79.4375 121.1875 C78.50180176 121.16244385 77.56610352 121.1373877 76.60205078 121.11157227 C68.3503963 120.88774525 60.09971403 120.6448519 51.84933472 120.37800598 C47.71692849 120.24737223 43.58756033 120.1536409 39.453125 120.109375 C26.19186247 119.86934615 26.19186247 119.86934615 20.83984375 114.80859375 C18.96549236 112.64186442 17.12736326 110.50323855 15.4375 108.1875 C14.633125 107.506875 14.633125 107.506875 13.8125 106.8125 C10.78079436 103.22957515 10.4375 98.71403282 10.4375 94.1875 C9.7775 94.1875 9.1175 94.1875 8.4375 94.1875 C8.32792969 93.57003906 8.21835938 92.95257813 8.10546875 92.31640625 C7.12210438 87.06380146 5.8634228 82.11662606 4.0234375 77.09765625 C3.4375 75.1875 3.4375 75.1875 3.4375 72.1875 C2.7775 72.1875 2.1175 72.1875 1.4375 72.1875 C1.1075 69.2175 0.7775 66.2475 0.4375 63.1875 C-2.90137021 65.41341347 -3.1364776 66.04891297 -4.31640625 69.6953125 C-4.61353516 70.60023437 -4.91066406 71.50515625 -5.21679688 72.4375 C-5.51650391 73.38625 -5.81621094 74.335 -6.125 75.3125 C-6.42857422 76.23804687 -6.73214844 77.16359375 -7.04492188 78.1171875 C-8.76797728 83.43275712 -10.27667869 88.74994719 -11.5625 94.1875 C-12.2225 94.1875 -12.8825 94.1875 -13.5625 94.1875 C-13.500625 94.8475 -13.43875 95.5075 -13.375 96.1875 C-13.63067753 100.27834054 -15.01945044 103.39416984 -16.5625 107.1875 C-17.2225 107.1875 -17.8825 107.1875 -18.5625 107.1875 C-18.5625 108.1775 -18.5625 109.1675 -18.5625 110.1875 C-19.2225 110.1875 -19.8825 110.1875 -20.5625 110.1875 C-20.5625 110.8475 -20.5625 111.5075 -20.5625 112.1875 C-23.46798882 114.22919485 -24.96392046 115.1875 -28.5625 115.1875 C-28.5625 115.8475 -28.5625 116.5075 -28.5625 117.1875 C-34.1722055 119.5420892 -39.44791358 119.53226481 -45.4296875 119.6015625 C-46.46441193 119.62092865 -47.49913635 119.6402948 -48.56521606 119.6602478 C-51.85589467 119.71981842 -55.14660868 119.76633905 -58.4375 119.8125 C-60.67449405 119.85070048 -62.91147372 119.88975341 -65.1484375 119.9296875 C-70.61966358 120.02550138 -76.09097695 120.11061431 -81.5625 120.1875 C-80.7375 120.80625 -79.9125 121.425 -79.0625 122.0625 C-78.2375 122.76375 -77.4125 123.465 -76.5625 124.1875 C-76.5625 124.8475 -76.5625 125.5075 -76.5625 126.1875 C-75.9025 126.1875 -75.2425 126.1875 -74.5625 126.1875 C-74.5625 126.8475 -74.5625 127.5075 -74.5625 128.1875 C-73.98371094 128.29320312 -73.40492187 128.39890625 -72.80859375 128.5078125 C-70.23571064 129.2863893 -68.72189839 130.39328583 -66.625 132.0625 C-64.52364572 133.72520179 -62.52603474 135.20816565 -60.19140625 136.53125 C-56.29245922 138.98764456 -53.16403012 142.15808539 -49.84765625 145.3359375 C-47.42283953 147.61956236 -45.76459463 149.12013512 -42.5625 150.1875 C-42.5625 150.8475 -42.5625 151.5075 -42.5625 152.1875 C-41.9025 152.1875 -41.2425 152.1875 -40.5625 152.1875 C-38.76307774 158.11500862 -38.41679308 163.36732325 -38.75 169.5 C-38.7802124 170.19351563 -38.8104248 170.88703125 -38.84155273 171.6015625 C-39.12580299 175.71794574 -39.76775979 178.14065693 -42.5625 181.1875 C-44.14916071 184.36082141 -44.84654934 187.47742519 -45.5 190.9375 C-46.6951016 197.22112015 -48.59957401 203.09257447 -51.1875 208.9375 C-52.6557019 211.99468309 -52.6557019 211.99468309 -52.875 214.71484375 C-53.5625 217.1875 -53.5625 217.1875 -55.5234375 218.76953125 C-56.32007812 219.17558594 -57.11671875 219.58164063 -57.9375 220 C-58.72898437 220.41894531 -59.52046875 220.83789062 -60.3359375 221.26953125 C-62.5625 222.1875 -62.5625 222.1875 -65.5625 222.1875 C-65.5625 222.8475 -65.5625 223.5075 -65.5625 224.1875 C-75.76736951 224.72023681 -83.76028228 225.0670396 -92.5625 219.1875 C-93.67625 218.61 -94.79 218.0325 -95.9375 217.4375 C-99.16104241 214.67446365 -100.23867466 212.03775125 -101.703125 208.11328125 C-102.40000547 206.00435348 -102.40000547 206.00435348 -104.5625 205.1875 C-104.59167228 201.95835248 -104.60935663 198.72923917 -104.625 195.5 C-104.63337891 194.58798828 -104.64175781 193.67597656 -104.65039062 192.73632812 C-104.65361328 191.85009766 -104.65683594 190.96386719 -104.66015625 190.05078125 C-104.66539307 189.23907471 -104.67062988 188.42736816 -104.67602539 187.59106445 C-104.5554791 185.03885327 -104.122449 182.67723863 -103.5625 180.1875 C-107.9263224 176.33109881 -112.43289907 172.71880901 -117.0625 169.1875 C-119.23125248 167.52351681 -121.39713432 165.85589651 -123.5625 164.1875 C-124.30628906 163.61644531 -125.05007812 163.04539063 -125.81640625 162.45703125 C-129.9227639 159.14888567 -132.30290317 155.97784528 -134.5625 151.1875 C-134.5625 150.1975 -134.5625 149.2075 -134.5625 148.1875 C-135.2225 148.1875 -135.8825 148.1875 -136.5625 148.1875 C-141.72495756 138.08812914 -143.73537397 130.13602689 -143.6875 118.75 C-143.69136719 117.83412109 -143.69523438 116.91824219 -143.69921875 115.97460938 C-143.69198657 110.93739428 -143.42291032 106.15193098 -142.5625 101.1875 C-141.9025 101.1875 -141.2425 101.1875 -140.5625 101.1875 C-140.36914062 100.1046875 -140.36914062 100.1046875 -140.171875 99 C-138.62727369 91.87107086 -136.21899665 85.9737664 -130.5625 81.1875 C-128.21225486 79.00512951 -127.61527207 78.34581622 -126.5625 75.1875 C-125.9025 75.1875 -125.2425 75.1875 -124.5625 75.1875 C-124.5625 74.5275 -124.5625 73.8675 -124.5625 73.1875 C-122.0875 72.1975 -122.0875 72.1975 -119.5625 71.1875 C-119.5625 70.5275 -119.5625 69.8675 -119.5625 69.1875 C-116.1272952 66.89736347 -114.577169 67.00907027 -110.5625 67.1875 C-110.5625 66.5275 -110.5625 65.8675 -110.5625 65.1875 C-101.15247722 60.59524487 -101.15247722 60.59524487 -96.5625 61.1875 C-96.5625 60.5275 -96.5625 59.8675 -96.5625 59.1875 C-92.91668402 59.1581092 -89.27089913 59.14057126 -85.625 59.125 C-84.60341797 59.11662109 -83.58183594 59.10824219 -82.52929688 59.09960938 C-76.4503003 59.08018766 -70.5898768 59.38929682 -64.5625 60.1875 C-63.08099586 57.37788887 -61.97414846 54.61493181 -61.01171875 51.58984375 C-60.72756104 50.71030029 -60.44340332 49.83075684 -60.15063477 48.92456055 C-59.70482056 47.53877808 -59.70482056 47.53877808 -59.25 46.125 C-56.78158098 38.56421115 -54.17193242 31.28993153 -50.5625 24.1875 C-49.9025 24.1875 -49.2425 24.1875 -48.5625 24.1875 C-48.19125 23.32898437 -48.19125 23.32898437 -47.8125 22.453125 C-46.36933801 19.83739389 -44.68033778 18.03976544 -42.5625 15.9375 C-41.510625 14.87789062 -41.510625 14.87789062 -40.4375 13.796875 C-38.5625 12.1875 -38.5625 12.1875 -36.5625 12.1875 C-36.5625 11.5275 -36.5625 10.8675 -36.5625 10.1875 C-34.50074636 9.227562 -32.43806531 8.26961576 -30.375 7.3125 C-29.22644531 6.77882813 -28.07789062 6.24515625 -26.89453125 5.6953125 C-25.79496094 5.19773437 -24.69539063 4.70015625 -23.5625 4.1875 C-22.78261719 3.83429687 -22.00273438 3.48109375 -21.19921875 3.1171875 C-14.15075219 0.6319504 -7.44008513 -0.11464851 0 0 Z " fill="#92313E" transform="translate(144.5625,2.8125)"/>
<path d="M0 0 C0.66 0 1.32 0 2 0 C2.495 4.455 2.495 4.455 3 9 C3.66 9 4.32 9 5 9 C5.41572266 10.26457031 5.41572266 10.26457031 5.83984375 11.5546875 C6.38318359 13.19824219 6.38318359 13.19824219 6.9375 14.875 C7.47697266 16.51082031 7.47697266 16.51082031 8.02734375 18.1796875 C8.89914074 20.90758682 8.89914074 20.90758682 10 23 C10.13415472 25.6723621 10.04318541 28.32250488 10 31 C10.66 31 11.32 31 12 31 C14.03165952 35.33420699 14.52060632 39.28596212 15 44 C15.99 44.33 16.98 44.66 18 45 C19.55494734 46.6569111 20.90909661 48.41878526 22.3046875 50.2109375 C26.48808483 54.62567478 30.22588997 55.40136606 36.1875 55.625 C36.92419922 55.65730713 37.66089844 55.68961426 38.41992188 55.72290039 C43.40287095 55.92500397 48.38832643 56.03576321 53.37385559 56.15252686 C55.68850729 56.20733257 58.00306322 56.2653377 60.31762695 56.32373047 C63.42672617 56.40211759 66.53566469 56.4653603 69.64526367 56.52001953 C71.09685171 56.5533095 72.54843099 56.58698426 74 56.62109375 C75.299375 56.6461499 76.59875 56.67120605 77.9375 56.69702148 C81 57 81 57 83 59 C83.125 61.625 83.125 61.625 83 64 C83.66 64 84.32 64 85 64 C85 65.32 85 66.64 85 68 C85.66 68 86.32 68 87 68 C87.10957031 68.54527344 87.21914062 69.09054688 87.33203125 69.65234375 C88.14293928 73.50910145 89.02915026 77.23089743 90.375 80.9375 C92.31957764 86.48351479 93.43917657 92.22598647 94.64208984 97.96850586 C95.15712189 101.79791744 95.15712189 101.79791744 97 105 C97.2165625 106.670625 97.2165625 106.670625 97.4375 108.375 C97.75300217 112.08510547 97.75300217 112.08510547 100 115 C100.99 114.67 101.98 114.34 103 114 C103 114.66 103 115.32 103 116 C102.34 116 101.68 116 101 116 C101.27714844 117.16917969 101.55429688 118.33835937 101.83984375 119.54296875 C102.20577401 121.09113523 102.57165693 122.63931291 102.9375 124.1875 C103.11990234 124.95642578 103.30230469 125.72535156 103.49023438 126.51757812 C104.39120113 130.33440092 105.26637997 134.14656426 106 138 C106.66 138 107.32 138 108 138 C111.0601628 151.63411821 110.71541223 163.86420878 106 177 C105.34 177 104.68 177 104 177 C103.938125 177.86625 103.87625 178.7325 103.8125 179.625 C102.9650405 183.14521637 101.72012337 184.80834243 99.30859375 187.4453125 C97.75612453 189.17823482 97.75612453 189.17823482 96.25 192.3125 C91.95117936 200.11277939 85.15323598 205.70734701 77 209 C76.03578125 209.43183594 75.0715625 209.86367188 74.078125 210.30859375 C61.35426895 215.89506289 43.59626992 218.0206912 30.17578125 213.0625 C26.68835979 211.35948629 23.38869795 209.4081165 20.12890625 207.3046875 C17.94542054 205.85620252 17.94542054 205.85620252 15 205 C15 204.34 15 203.68 15 203 C12.66785852 201.79371992 10.50357861 200.8345262 8 200 C5 195.66666667 5 195.66666667 5 193 C4.34 193 3.68 193 3 193 C2.67 192.34 2.34 191.68 2 191 C-2.45264453 191.40478587 -4.96505903 193.23680054 -8.3515625 195.94140625 C-10 197 -10 197 -13 197 C-13.66 198.32 -14.32 199.64 -15 201 C-15.99 201 -16.98 201 -18 201 C-18 201.66 -18 202.32 -18 203 C-20.44921875 204.65625 -20.44921875 204.65625 -23.6875 206.5 C-24.74324219 207.1084375 -25.79898438 207.716875 -26.88671875 208.34375 C-31.23963527 210.65947974 -34.02270089 212 -39 212 C-39 212.66 -39 213.32 -39 214 C-43.5416125 214.05823729 -48.0831284 214.09367675 -52.625 214.125 C-54.55279297 214.15013672 -54.55279297 214.15013672 -56.51953125 214.17578125 C-57.76347656 214.18222656 -59.00742188 214.18867188 -60.2890625 214.1953125 C-61.43068848 214.20578613 -62.57231445 214.21625977 -63.74853516 214.22705078 C-67.13566817 213.99052625 -69.84005042 213.2095701 -73 212 C-73 211.34 -73 210.68 -73 210 C-73.8765625 209.91234375 -74.753125 209.8246875 -75.65625 209.734375 C-79.4457989 208.90209089 -81.43340277 207.59400823 -84.5 205.25 C-85.45132813 204.52683594 -86.40265625 203.80367187 -87.3828125 203.05859375 C-88.24648437 202.37925781 -89.11015625 201.69992187 -90 201 C-90.92425781 200.27490234 -90.92425781 200.27490234 -91.8671875 199.53515625 C-97.12311129 195.27322841 -101.38122246 191.34019825 -104 185 C-104 184.01 -104 183.02 -104 182 C-104.66 182 -105.32 182 -106 182 C-106 180.68 -106 179.36 -106 178 C-106.66 178 -107.32 178 -108 178 C-108.48509793 176.62708132 -108.96275513 175.25153297 -109.4375 173.875 C-109.70433594 173.10929688 -109.97117188 172.34359375 -110.24609375 171.5546875 C-113.84268506 159.36727447 -112.12257953 146.29959031 -110 134 C-109.34 134 -108.68 134 -108 134 C-107.9175 133.278125 -107.835 132.55625 -107.75 131.8125 C-107 129 -107 129 -103 124 C-103 129.94 -103 135.88 -103 142 C-102.01 142.33 -101.02 142.66 -100 143 C-99.18359375 144.85546875 -99.18359375 144.85546875 -98.4375 147.1875 C-95.99090071 153.14278819 -91.6408503 155.34906111 -86 158 C-84.87851563 158.55494141 -84.87851563 158.55494141 -83.734375 159.12109375 C-79.90401048 160.35228235 -76.18869753 160.46401301 -72.1875 160.625 C-71.00510742 160.68300781 -71.00510742 160.68300781 -69.79882812 160.7421875 C-67.8662462 160.83588844 -65.93315624 160.91900779 -64 161 C-64 160.34 -64 159.68 -64 159 C-62.37750059 158.16180842 -60.75191503 157.3295884 -59.125 156.5 C-58.22007813 156.0359375 -57.31515625 155.571875 -56.3828125 155.09375 C-54 154 -54 154 -52 154 C-52.0825 153.360625 -52.165 152.72125 -52.25 152.0625 C-51.94275535 148.29875298 -50.60241056 145.64538101 -49.015625 142.25390625 C-46.93904861 137.64550404 -45.96958527 132.87853358 -45.0625 127.9375 C-44.02896899 122.58267006 -42.02032251 118.53048376 -39 114 C-38.6676492 111.42789382 -38.44024408 108.95714945 -38.3125 106.375 C-38.2719751 105.66021484 -38.2314502 104.94542969 -38.18969727 104.20898438 C-37.94000383 99.02476107 -38.17468773 94.13527638 -39 89 C-39.66 89 -40.32 89 -41 89 C-41 88.34 -41 87.68 -41 87 C-41.5976416 86.88897949 -42.1952832 86.77795898 -42.81103516 86.66357422 C-46.41902367 85.56982976 -48.74369363 82.71386594 -51.375 80.125 C-55.3761494 76.18928996 -58.83544778 73.37583889 -64 71 C-65.79296875 69.6484375 -65.79296875 69.6484375 -67.1875 68.375 C-69.82064001 65.85397289 -69.82064001 65.85397289 -73 65 C-73 64.34 -73 63.68 -73 63 C-73.66 63 -74.32 63 -75 63 C-75 62.34 -75 61.68 -75 61 C-75.61875 60.731875 -76.2375 60.46375 -76.875 60.1875 C-79 59 -79 59 -81 56 C-80.41197601 55.98969254 -79.82395203 55.97938507 -79.21810913 55.96876526 C-73.08589224 55.86040168 -66.95381345 55.74582892 -60.82177734 55.62768555 C-58.53469742 55.58443223 -56.24758721 55.54275053 -53.96044922 55.50268555 C-50.66885254 55.44475001 -47.37740699 55.3811229 -44.0859375 55.31640625 C-43.06696381 55.29969376 -42.04799011 55.28298126 -40.99813843 55.26576233 C-36.23558827 55.16687022 -31.68302326 54.97476262 -27 54 C-27 53.34 -27 52.68 -27 52 C-24.09451118 49.95830515 -22.59857954 49 -19 49 C-19 48.34 -19 47.68 -19 47 C-18.34 47 -17.68 47 -17 47 C-17 46.01 -17 45.02 -17 44 C-16.34 44 -15.68 44 -15 44 C-14.814375 42.453125 -14.814375 42.453125 -14.625 40.875 C-14.06110186 37.37883154 -13.21317941 34.31602373 -12 31 C-11.34 31 -10.68 31 -10 31 C-10.04640625 30.14921875 -10.0928125 29.2984375 -10.140625 28.421875 C-9.9835793 24.6004296 -9.09236734 21.82425522 -7.75 18.25 C-7.069375 16.42662109 -7.069375 16.42662109 -6.375 14.56640625 C-5.92125 13.38949219 -5.4675 12.21257812 -5 11 C-4.608125 9.97777344 -4.21625 8.95554687 -3.8125 7.90234375 C-1.18262411 1.18262411 -1.18262411 1.18262411 0 0 Z " fill="#D2AF34" transform="translate(143,66)"/>
<path d="M0 0 C8.38445246 -0.14634055 16.31869515 0.56556062 24.5546875 2.12109375 C23.68242907 8.67450905 22.96727586 13.0399314 18.5546875 18.12109375 C15.52612023 24.74522035 14.58296574 31.97153567 13.5546875 39.12109375 C12.8946875 39.12109375 12.2346875 39.12109375 11.5546875 39.12109375 C11.5546875 41.10109375 11.5546875 43.08109375 11.5546875 45.12109375 C10.0696875 45.61609375 10.0696875 45.61609375 8.5546875 46.12109375 C8.25143628 48.36695425 7.98816228 50.61824065 7.7421875 52.87109375 C7.59136719 54.1240625 7.44054688 55.37703125 7.28515625 56.66796875 C7.17734985 60.29290302 7.17734985 60.29290302 10.04296875 62.44921875 C10.87183594 63.0009375 11.70070313 63.55265625 12.5546875 64.12109375 C12.5546875 64.78109375 12.5546875 65.44109375 12.5546875 66.12109375 C13.2146875 66.12109375 13.8746875 66.12109375 14.5546875 66.12109375 C14.5546875 66.78109375 14.5546875 67.44109375 14.5546875 68.12109375 C15.13347656 68.22679687 15.71226563 68.3325 16.30859375 68.44140625 C18.88147686 69.21998305 20.39528911 70.32687958 22.4921875 71.99609375 C24.59354178 73.65879554 26.59115276 75.1417594 28.92578125 76.46484375 C32.82472828 78.92123831 35.95315738 82.09167914 39.26953125 85.26953125 C41.69434797 87.55315611 43.35259287 89.05372887 46.5546875 90.12109375 C46.5546875 90.78109375 46.5546875 91.44109375 46.5546875 92.12109375 C47.2146875 92.12109375 47.8746875 92.12109375 48.5546875 92.12109375 C50.35410976 98.04860237 50.70039442 103.300917 50.3671875 109.43359375 C50.3369751 110.12710938 50.3067627 110.820625 50.27563477 111.53515625 C49.99138451 115.65153949 49.34942771 118.07425068 46.5546875 121.12109375 C44.96802679 124.29441516 44.27063816 127.41101894 43.6171875 130.87109375 C42.4220859 137.1547139 40.51761349 143.02616822 37.9296875 148.87109375 C36.4614856 151.92827684 36.4614856 151.92827684 36.2421875 154.6484375 C35.5546875 157.12109375 35.5546875 157.12109375 33.59375 158.703125 C32.79710938 159.10917969 32.00046875 159.51523438 31.1796875 159.93359375 C30.38820313 160.35253906 29.59671875 160.77148438 28.78125 161.203125 C26.5546875 162.12109375 26.5546875 162.12109375 23.5546875 162.12109375 C23.5546875 162.78109375 23.5546875 163.44109375 23.5546875 164.12109375 C13.34981799 164.65383056 5.35690522 165.00063335 -3.4453125 159.12109375 C-4.5590625 158.54359375 -5.6728125 157.96609375 -6.8203125 157.37109375 C-10.04385491 154.6080574 -11.12148716 151.971345 -12.5859375 148.046875 C-13.28281797 145.93794723 -13.28281797 145.93794723 -15.4453125 145.12109375 C-15.47448478 141.89194623 -15.49216913 138.66283292 -15.5078125 135.43359375 C-15.51619141 134.52158203 -15.52457031 133.60957031 -15.53320312 132.66992188 C-15.53642578 131.78369141 -15.53964844 130.89746094 -15.54296875 129.984375 C-15.54820557 129.17266846 -15.55344238 128.36096191 -15.55883789 127.5246582 C-15.4382916 124.97244702 -15.0052615 122.61083238 -14.4453125 120.12109375 C-18.8091349 116.26469256 -23.31571157 112.65240276 -27.9453125 109.12109375 C-30.11406498 107.45711056 -32.27994682 105.78949026 -34.4453125 104.12109375 C-35.18910156 103.55003906 -35.93289062 102.97898437 -36.69921875 102.390625 C-40.8055764 99.08247942 -43.18571567 95.91143903 -45.4453125 91.12109375 C-45.4453125 90.13109375 -45.4453125 89.14109375 -45.4453125 88.12109375 C-46.1053125 88.12109375 -46.7653125 88.12109375 -47.4453125 88.12109375 C-52.60777006 78.02172289 -54.61818647 70.06962064 -54.5703125 58.68359375 C-54.57417969 57.76771484 -54.57804687 56.85183594 -54.58203125 55.90820312 C-54.57479907 50.87098803 -54.30572282 46.08552473 -53.4453125 41.12109375 C-52.7853125 41.12109375 -52.1253125 41.12109375 -51.4453125 41.12109375 C-51.31640625 40.39921875 -51.1875 39.67734375 -51.0546875 38.93359375 C-49.51008619 31.80466461 -47.10180915 25.90736015 -41.4453125 21.12109375 C-39.09506736 18.93872326 -38.49808457 18.27940997 -37.4453125 15.12109375 C-36.7853125 15.12109375 -36.1253125 15.12109375 -35.4453125 15.12109375 C-35.4453125 14.46109375 -35.4453125 13.80109375 -35.4453125 13.12109375 C-33.7953125 12.46109375 -32.1453125 11.80109375 -30.4453125 11.12109375 C-30.4453125 10.46109375 -30.4453125 9.80109375 -30.4453125 9.12109375 C-27.0101077 6.83095722 -25.4599815 6.94266402 -21.4453125 7.12109375 C-21.4453125 6.46109375 -21.4453125 5.80109375 -21.4453125 5.12109375 C-14.09358323 1.3843992 -8.16464714 0.28696606 0 0 Z " fill="#92333F" transform="translate(55.4453125,62.87890625)"/>
<path d="M0 0 C0.66 0 1.32 0 2 0 C2.495 4.455 2.495 4.455 3 9 C3.66 9 4.32 9 5 9 C5.41572266 10.26457031 5.41572266 10.26457031 5.83984375 11.5546875 C6.38318359 13.19824219 6.38318359 13.19824219 6.9375 14.875 C7.47697266 16.51082031 7.47697266 16.51082031 8.02734375 18.1796875 C8.89914074 20.90758682 8.89914074 20.90758682 10 23 C10.13415472 25.6723621 10.04318541 28.32250488 10 31 C10.66 31 11.32 31 12 31 C14.03165952 35.33420699 14.52060632 39.28596212 15 44 C16.485 44.495 16.485 44.495 18 45 C19.55494734 46.6569111 20.90909661 48.41878526 22.3046875 50.2109375 C26.48808483 54.62567478 30.22588997 55.40136606 36.1875 55.625 C36.92274902 55.65585693 37.65799805 55.68671387 38.41552734 55.71850586 C41.27662371 55.83078807 44.13793905 55.9156347 47 56 C48.38916993 56.04379903 49.77832943 56.08793 51.16748047 56.13232422 C61.11095031 56.44841444 71.05507598 56.73369456 81 57 C80.68359375 58.87109375 80.68359375 58.87109375 80 61 C78.03277992 62.38123963 76.03131672 63.71488126 74 65 C73.34 65.99 72.68 66.98 72 68 C70.33927151 68.68132451 68.67159646 69.34579246 67 70 C64.19950551 71.95667737 61.51795991 74.0344663 58.81640625 76.125 C55.92772442 78.04811689 53.32542128 79.05967469 50 80 C50 80.66 50 81.32 50 82 C49.195625 82.474375 48.39125 82.94875 47.5625 83.4375 C44.7081924 84.79983672 44.7081924 84.79983672 44 88 C43.34 88 42.68 88 42 88 C41.01 90.97 40.02 93.94 39 97 C38.34 97 37.68 97 37 97 C37.25287602 100.77225646 37.53067843 104.54230437 37.8125 108.3125 C37.88275391 109.36501953 37.95300781 110.41753906 38.02539062 111.50195312 C38.95259072 125.03266378 38.95259072 125.03266378 46 136 C46.79296875 138.98046875 46.79296875 138.98046875 47.1875 142.1875 C47.36912159 145.90985163 47.36912159 145.90985163 49 149 C49.04063832 150.66617115 49.042721 152.33388095 49 154 C44.71181167 153.52353463 42.94800383 150.94800383 40 148 C37.09998423 146.07971929 34.05885828 144.46714336 30.875 143.0625 C28.10449608 141.49254778 26.19028043 139.29712338 24 137 C20.51672968 133.19792607 20.51672968 133.19792607 16 131 C16 130.34 16 129.68 16 129 C15.1646875 128.814375 15.1646875 128.814375 14.3125 128.625 C11.77885636 127.94023145 9.42078968 127.00866237 7 126 C7 125.34 7 124.68 7 124 C-1.52155677 124.22191554 -8.50065029 124.52923383 -16 129 C-16.99 129 -17.98 129 -19 129 C-19 129.66 -19 130.32 -19 131 C-21.01171875 132.33203125 -21.01171875 132.33203125 -23.6875 133.8125 C-26.72791617 135.5662596 -28.974771 136.9741241 -31.4375 139.5 C-35.16770388 143.1392233 -41.58402881 148 -47 148 C-47 148.66 -47 149.32 -47 150 C-47.99 150 -48.98 150 -50 150 C-50.18483183 145.9336997 -49.93193597 143.54188261 -48 140 C-46.71905971 135.99706161 -45.81462519 132.07108057 -45.0625 127.9375 C-44.02896899 122.58267006 -42.02032251 118.53048376 -39 114 C-38.6676492 111.42789382 -38.44024408 108.95714945 -38.3125 106.375 C-38.2719751 105.66021484 -38.2314502 104.94542969 -38.18969727 104.20898438 C-37.94000383 99.02476107 -38.17468773 94.13527638 -39 89 C-39.66 89 -40.32 89 -41 89 C-41 88.34 -41 87.68 -41 87 C-41.5976416 86.88897949 -42.1952832 86.77795898 -42.81103516 86.66357422 C-46.41902367 85.56982976 -48.74369363 82.71386594 -51.375 80.125 C-55.3761494 76.18928996 -58.83544778 73.37583889 -64 71 C-65.79296875 69.6484375 -65.79296875 69.6484375 -67.1875 68.375 C-69.82064001 65.85397289 -69.82064001 65.85397289 -73 65 C-73 64.34 -73 63.68 -73 63 C-73.66 63 -74.32 63 -75 63 C-75 62.34 -75 61.68 -75 61 C-75.61875 60.731875 -76.2375 60.46375 -76.875 60.1875 C-79 59 -79 59 -81 56 C-80.41197601 55.98969254 -79.82395203 55.97938507 -79.21810913 55.96876526 C-73.08589224 55.86040168 -66.95381345 55.74582892 -60.82177734 55.62768555 C-58.53469742 55.58443223 -56.24758721 55.54275053 -53.96044922 55.50268555 C-50.66885254 55.44475001 -47.37740699 55.3811229 -44.0859375 55.31640625 C-43.06696381 55.29969376 -42.04799011 55.28298126 -40.99813843 55.26576233 C-36.23558827 55.16687022 -31.68302326 54.97476262 -27 54 C-27 53.34 -27 52.68 -27 52 C-24.09451118 49.95830515 -22.59857954 49 -19 49 C-19 48.34 -19 47.68 -19 47 C-18.34 47 -17.68 47 -17 47 C-17 46.01 -17 45.02 -17 44 C-16.34 44 -15.68 44 -15 44 C-14.814375 42.453125 -14.814375 42.453125 -14.625 40.875 C-14.06110186 37.37883154 -13.21317941 34.31602373 -12 31 C-11.34 31 -10.68 31 -10 31 C-10.04640625 30.14921875 -10.0928125 29.2984375 -10.140625 28.421875 C-9.9835793 24.6004296 -9.09236734 21.82425522 -7.75 18.25 C-7.069375 16.42662109 -7.069375 16.42662109 -6.375 14.56640625 C-5.92125 13.38949219 -5.4675 12.21257812 -5 11 C-4.608125 9.97777344 -4.21625 8.95554687 -3.8125 7.90234375 C-1.18262411 1.18262411 -1.18262411 1.18262411 0 0 Z " fill="#E8E5DD" transform="translate(143,66)"/>
<path d="M0 0 C0.33 0 0.66 0 1 0 C1 5.94 1 11.88 1 18 C1.99 18.33 2.98 18.66 4 19 C4.81640625 20.85546875 4.81640625 20.85546875 5.5625 23.1875 C8.00909929 29.14278819 12.3591497 31.34906111 18 34 C18.74765625 34.36996094 19.4953125 34.73992187 20.265625 35.12109375 C24.09598952 36.35228235 27.81130247 36.46401301 31.8125 36.625 C32.60076172 36.66367188 33.38902344 36.70234375 34.20117188 36.7421875 C36.1337538 36.83588844 38.06684376 36.91900779 40 37 C40 36.34 40 35.68 40 35 C41.62249941 34.16180842 43.24808497 33.3295884 44.875 32.5 C45.77992187 32.0359375 46.68484375 31.571875 47.6171875 31.09375 C50 30 50 30 52 30 C52 28.35 52 26.7 52 25 C52.66 24.67 53.32 24.34 54 24 C54 24.66 54 25.32 54 26 C54.99 26 55.98 26 57 26 C57 25.34 57 24.68 57 24 C58.09699219 23.40832031 59.19398437 22.81664062 60.32421875 22.20703125 C61.77889382 21.40930621 63.23330714 20.61110374 64.6875 19.8125 C65.40873047 19.42513672 66.12996094 19.03777344 66.87304688 18.63867188 C71.2555737 16.21727578 74.55867207 13.70412025 78 10 C82.44827586 7 82.44827586 7 85 7 C85 6.34 85 5.68 85 5 C93.90493967 -0.18374866 100.95916293 -0.60976743 111 0 C111 0.66 111 1.32 111 2 C111.7425 2.12375 112.485 2.2475 113.25 2.375 C115.80141485 2.95486701 117.7267573 3.73708739 120 5 C120 5.66 120 6.32 120 7 C120.556875 7.061875 121.11375 7.12375 121.6875 7.1875 C124.95765706 8.3364741 126.63046369 10.51198688 129 13 C129.763125 13.556875 130.52625 14.11375 131.3125 14.6875 C131.869375 15.120625 132.42625 15.55375 133 16 C133 16.66 133 17.32 133 18 C133.56847656 18.10828125 134.13695312 18.2165625 134.72265625 18.328125 C140.95584887 20.1670772 146.86701894 25.06708712 151 30 C151 30.99 151 31.98 151 33 C150.34 33 149.68 33 149 33 C149 33.66 149 34.32 149 35 C147.4840625 35.804375 147.4840625 35.804375 145.9375 36.625 C142.46503153 38.5922654 139.664532 40.96259294 136.703125 43.6171875 C134.35399138 45.52451159 131.70865574 46.67716813 129 48 C128.34 48.99 127.68 49.98 127 51 C126.34 51 125.68 51 125 51 C125 51.66 125 52.32 125 53 C121.66666667 54.66666667 118.33333333 56.33333333 115 58 C115 58.66 115 59.32 115 60 C114.34 60 113.68 60 113 60 C113 60.66 113 61.32 113 62 C109.535 62.495 109.535 62.495 106 63 C106 63.99 106 64.98 106 66 C104.948125 66.4125 103.89625 66.825 102.8125 67.25 C99.39868075 68.69139035 96.88540649 70.67564477 94 73 C93.01 73 92.02 73 91 73 C90.01 74.98 90.01 74.98 89 77 C88.01 77 87.02 77 86 77 C86 77.66 86 78.32 86 79 C83.55078125 80.65625 83.55078125 80.65625 80.3125 82.5 C79.25675781 83.1084375 78.20101562 83.716875 77.11328125 84.34375 C72.76036473 86.65947974 69.97729911 88 65 88 C65 88.66 65 89.32 65 90 C60.4583875 90.05823729 55.9168716 90.09367675 51.375 90.125 C49.44720703 90.15013672 49.44720703 90.15013672 47.48046875 90.17578125 C46.23652344 90.18222656 44.99257812 90.18867188 43.7109375 90.1953125 C42.56931152 90.20578613 41.42768555 90.21625977 40.25146484 90.22705078 C36.86433183 89.99052625 34.15994958 89.2095701 31 88 C31 87.34 31 86.68 31 86 C30.1234375 85.91234375 29.246875 85.8246875 28.34375 85.734375 C24.5542011 84.90209089 22.56659723 83.59400823 19.5 81.25 C18.54867187 80.52683594 17.59734375 79.80367188 16.6171875 79.05859375 C15.75351562 78.37925781 14.88984375 77.69992187 14 77 C13.07574219 76.27490234 13.07574219 76.27490234 12.1328125 75.53515625 C6.87688871 71.27322841 2.61877754 67.34019825 0 61 C0 60.01 0 59.02 0 58 C-0.66 58 -1.32 58 -2 58 C-2 56.68 -2 55.36 -2 54 C-2.66 54 -3.32 54 -4 54 C-4.48509793 52.62708132 -4.96275513 51.25153297 -5.4375 49.875 C-5.70433594 49.10929687 -5.97117188 48.34359375 -6.24609375 47.5546875 C-9.84268506 35.36727447 -8.12257953 22.29959031 -6 10 C-5.34 10 -4.68 10 -4 10 C-3.8453125 8.9171875 -3.8453125 8.9171875 -3.6875 7.8125 C-2.93659472 4.74061475 -1.78158272 2.59814146 0 0 Z " fill="#D2AF33" transform="translate(39,190)"/>
<path d="M0 0 C1.19786133 0.0009668 1.19786133 0.0009668 2.41992188 0.00195312 C15.80646439 0.10014292 15.80646439 0.10014292 20.4375 3.1875 C20.4375 3.8475 20.4375 4.5075 20.4375 5.1875 C21.241875 5.22875 22.04625 5.27 22.875 5.3125 C27.0980555 6.3497417 29.79410526 8.21104054 33.3125 10.6953125 C35.54286081 12.31062382 35.54286081 12.31062382 38.5 13.9375 C39.139375 14.35 39.77875 14.7625 40.4375 15.1875 C40.4375 15.8475 40.4375 16.5075 40.4375 17.1875 C41.0975 17.1875 41.7575 17.1875 42.4375 17.1875 C43.45616229 18.84282623 44.45560813 20.51010138 45.4375 22.1875 C46.0975 22.5175 46.7575 22.8475 47.4375 23.1875 C48.0625 26.25 48.0625 26.25 48.4375 29.1875 C49.0975 29.1875 49.7575 29.1875 50.4375 29.1875 C55.75113134 37.06633268 58.09918385 46.70336483 57.4375 56.1875 C55.93964449 54.2138551 54.4711037 52.23693993 53.078125 50.1875 C49.70780614 45.34029984 46.76405913 42.74424838 41.4375 40.1875 C41.4375 39.5275 41.4375 38.8675 41.4375 38.1875 C37.1107881 37.13962446 32.86731251 36.97019234 28.4375 36.9375 C27.73882812 36.916875 27.04015625 36.89625 26.3203125 36.875 C21.77240899 36.8406762 19.13104661 37.57236116 15.4375 40.1875 C14.695 40.3525 13.9525 40.5175 13.1875 40.6875 C12.32125 40.935 12.32125 40.935 11.4375 41.1875 C11.1075 42.1775 10.7775 43.1675 10.4375 44.1875 C8.4375 45.52083333 6.4375 46.85416667 4.4375 48.1875 C4.1075 49.1775 3.7775 50.1675 3.4375 51.1875 C2.7775 51.1875 2.1175 51.1875 1.4375 51.1875 C1.4375 52.1775 1.4375 53.1675 1.4375 54.1875 C0.7775 54.1875 0.1175 54.1875 -0.5625 54.1875 C-0.0675 58.6425 -0.0675 58.6425 0.4375 63.1875 C-0.5525 63.8475 -1.5425 64.5075 -2.5625 65.1875 C-3.58350688 67.25343756 -3.58350688 67.25343756 -4.31640625 69.6953125 C-4.61353516 70.60023437 -4.91066406 71.50515625 -5.21679688 72.4375 C-5.51650391 73.38625 -5.81621094 74.335 -6.125 75.3125 C-6.42857422 76.23804687 -6.73214844 77.16359375 -7.04492188 78.1171875 C-8.76797728 83.43275712 -10.27667869 88.74994719 -11.5625 94.1875 C-12.2225 94.1875 -12.8825 94.1875 -13.5625 94.1875 C-13.500625 94.8475 -13.43875 95.5075 -13.375 96.1875 C-13.63067753 100.27834054 -15.01945044 103.39416984 -16.5625 107.1875 C-17.2225 107.1875 -17.8825 107.1875 -18.5625 107.1875 C-18.5625 108.1775 -18.5625 109.1675 -18.5625 110.1875 C-19.2225 110.1875 -19.8825 110.1875 -20.5625 110.1875 C-20.5625 110.8475 -20.5625 111.5075 -20.5625 112.1875 C-23.46798882 114.22919485 -24.96392046 115.1875 -28.5625 115.1875 C-28.5625 115.8475 -28.5625 116.5075 -28.5625 117.1875 C-34.25079746 119.62293403 -39.57925786 119.44429548 -45.6484375 119.3828125 C-47.23381821 119.37856766 -47.23381821 119.37856766 -48.85122681 119.37423706 C-52.21343501 119.3630785 -55.57537286 119.33798159 -58.9375 119.3125 C-61.22265239 119.30246462 -63.50780898 119.29333975 -65.79296875 119.28515625 C-71.38290411 119.26315332 -76.97268273 119.22971873 -82.5625 119.1875 C-82.47526622 117.41575181 -82.36708345 115.64502623 -82.25 113.875 C-82.19199219 112.88886719 -82.13398437 111.90273437 -82.07421875 110.88671875 C-81.50005979 107.85813978 -80.78751574 107.18074327 -78.5625 105.1875 C-77.8355774 102.07910979 -77.8355774 102.07910979 -77.5625 99.1875 C-76.9025 99.1875 -76.2425 99.1875 -75.5625 99.1875 C-75.53671875 98.43726562 -75.5109375 97.68703125 -75.484375 96.9140625 C-75.05411484 89.14982233 -74.01661931 81.53385985 -69.03515625 75.265625 C-67.2385463 72.73035579 -66.62642634 70.44320538 -65.875 67.4375 C-65.62363281 66.45265625 -65.37226562 65.4678125 -65.11328125 64.453125 C-64.93152344 63.70546875 -64.74976562 62.9578125 -64.5625 62.1875 C-75.24686922 61.11330848 -85.83594291 61.08555806 -96.5625 61.1875 C-96.5625 60.5275 -96.5625 59.8675 -96.5625 59.1875 C-92.91668402 59.1581092 -89.27089913 59.14057126 -85.625 59.125 C-84.60341797 59.11662109 -83.58183594 59.10824219 -82.52929688 59.09960938 C-76.4503003 59.08018766 -70.5898768 59.38929682 -64.5625 60.1875 C-63.08099586 57.37788887 -61.97414846 54.61493181 -61.01171875 51.58984375 C-60.72756104 50.71030029 -60.44340332 49.83075684 -60.15063477 48.92456055 C-59.70482056 47.53877808 -59.70482056 47.53877808 -59.25 46.125 C-56.78158098 38.56421115 -54.17193242 31.28993153 -50.5625 24.1875 C-49.9025 24.1875 -49.2425 24.1875 -48.5625 24.1875 C-48.315 23.61515625 -48.0675 23.0428125 -47.8125 22.453125 C-46.36933801 19.83739389 -44.68033778 18.03976544 -42.5625 15.9375 C-41.510625 14.87789062 -41.510625 14.87789062 -40.4375 13.796875 C-38.5625 12.1875 -38.5625 12.1875 -36.5625 12.1875 C-36.5625 11.5275 -36.5625 10.8675 -36.5625 10.1875 C-34.50074636 9.227562 -32.43806531 8.26961576 -30.375 7.3125 C-29.22644531 6.77882813 -28.07789062 6.24515625 -26.89453125 5.6953125 C-25.79496094 5.19773437 -24.69539063 4.70015625 -23.5625 4.1875 C-22.78261719 3.83429687 -22.00273438 3.48109375 -21.19921875 3.1171875 C-14.15075219 0.6319504 -7.44008513 -0.11464851 0 0 Z " fill="#D2B035" transform="translate(144.5625,2.8125)"/>
<path d="M0 0 C0.71671875 -0.01224609 1.4334375 -0.02449219 2.171875 -0.03710938 C6.31908708 -0.0485447 9.52380735 0.3317387 13.25 2.1875 C13.25 2.8475 13.25 3.5075 13.25 4.1875 C13.83910156 4.3009375 14.42820313 4.414375 15.03515625 4.53125 C21.53802305 6.45802535 25.27645143 12.30273875 28.40234375 17.94140625 C29.36723491 20.49814549 29.31086425 22.47665658 29.25 25.1875 C23.22176404 25.21245925 17.19355902 25.23048121 11.1652832 25.24243164 C9.12003047 25.24742045 7.07478122 25.25421389 5.02954102 25.26293945 C-5.94329487 25.30853667 -16.82495758 25.34623641 -27.75 24.1875 C-27.75 23.1975 -27.75 22.2075 -27.75 21.1875 C-27.09 21.1875 -26.43 21.1875 -25.75 21.1875 C-25.5334375 20.0428125 -25.5334375 20.0428125 -25.3125 18.875 C-24.75 16.1875 -24.75 16.1875 -23.75 13.1875 C-23.09 12.8575 -22.43 12.5275 -21.75 12.1875 C-20.61649466 10.17080173 -20.61649466 10.17080173 -19.75 8.1875 C-19.09 8.1875 -18.43 8.1875 -17.75 8.1875 C-17.6675 7.56230469 -17.585 6.93710937 -17.5 6.29296875 C-16.75 4.1875 -16.75 4.1875 -14.9375 3.17578125 C-14.215625 2.95277344 -13.49375 2.72976562 -12.75 2.5 C-4.94238204 0.00435069 -4.94238204 0.00435069 0 0 Z " fill="#0B3045" transform="translate(172.75,38.8125)"/>
<path d="M0 0 C0.84023188 4.35332736 1.10770995 8.44442519 1.0625 12.875 C1.05347656 14.02742187 1.04445312 15.17984375 1.03515625 16.3671875 C1.02355469 17.23601562 1.01195312 18.10484375 1 19 C0.34 19 -0.32 19 -1 19 C-1 19.99 -1 20.98 -1 22 C-1.66 22 -2.32 22 -3 22 C-3.33 24.31 -3.66 26.62 -4 29 C-4.66 29 -5.32 29 -6 29 C-6 29.66 -6 30.32 -6 31 C-6.66 31 -7.32 31 -8 31 C-8 31.66 -8 32.32 -8 33 C-10.5614657 35.29648649 -11.47967572 36 -15 36 C-15 36.66 -15 37.32 -15 38 C-22.63467768 42.0718281 -30.08940134 41.99736059 -38.375 39.75 C-42.22230617 38.4696067 -45.04986763 36.85179462 -48 34 C-47.67 33.01 -47.34 32.02 -47 31 C-45.35 30.67 -43.7 30.34 -42 30 C-42 29.34 -42 28.68 -42 28 C-41.34 28 -40.68 28 -40 28 C-40 27.34 -40 26.68 -40 26 C-38.57421875 24.7109375 -38.57421875 24.7109375 -36.6875 23.375 C-36.07261719 22.92898437 -35.45773438 22.48296875 -34.82421875 22.0234375 C-33 21 -33 21 -30 21 C-30 20.34 -30 19.68 -30 19 C-26.37268693 15.05908638 -23.28717066 12.90637211 -18 12 C-17.71125 11.4225 -17.4225 10.845 -17.125 10.25 C-15.40011589 6.80023179 -12.35462794 4.82300494 -9 3 C-8.01 3 -7.02 3 -6 3 C-6 2.34 -6 1.68 -6 1 C-4 0 -4 0 0 0 Z " fill="#062F44" transform="translate(194,222)"/>
<path d="M0 0 C1.50433594 0.01353516 1.50433594 0.01353516 3.0390625 0.02734375 C3.80992188 0.03894531 4.58078125 0.05054687 5.375 0.0625 C5.045 3.0325 4.715 6.0025 4.375 9.0625 C3.715 9.0625 3.055 9.0625 2.375 9.0625 C2.41367188 9.79339844 2.45234375 10.52429688 2.4921875 11.27734375 C2.36750438 14.24064585 1.73820212 15.95427936 0.5 18.625 C-1.9132939 24.29880799 -2.83026407 29.97649591 -3.625 36.0625 C-4.285 36.0625 -4.945 36.0625 -5.625 36.0625 C-5.625 38.0425 -5.625 40.0225 -5.625 42.0625 C-7.11 42.5575 -7.11 42.5575 -8.625 43.0625 C-8.74875 44.155625 -8.8725 45.24875 -9 46.375 C-9.625 50.0625 -9.625 50.0625 -11.625 53.0625 C-13.275 52.7325 -14.925 52.4025 -16.625 52.0625 C-16.955 50.7425 -17.285 49.4225 -17.625 48.0625 C-18.5221875 47.9696875 -18.5221875 47.9696875 -19.4375 47.875 C-22.58641032 46.70540474 -23.17033466 45.03795183 -24.625 42.0625 C-27.37879623 34.94515166 -28.09740189 26.77835323 -25.796875 19.41015625 C-23.39081146 14.44540573 -23.39081146 14.44540573 -20.625 13.0625 C-19.97286708 11.03786745 -19.97286708 11.03786745 -19.625 9.0625 C-18.965 9.0625 -18.305 9.0625 -17.625 9.0625 C-17.625 8.4025 -17.625 7.7425 -17.625 7.0625 C-14.25816085 4.63089395 -12.89149636 4.0625 -8.625 4.0625 C-8.295 3.0725 -7.965 2.0825 -7.625 1.0625 C-4.98041621 -0.25979189 -2.94738699 -0.03427194 0 0 Z " fill="#042D44" transform="translate(72.625,65.9375)"/>
<path d="M0 0 C10.55808656 -0.18451025 10.55808656 -0.18451025 15 1 C15 1.66 15 2.32 15 3 C15.639375 3.103125 16.27875 3.20625 16.9375 3.3125 C17.618125 3.539375 18.29875 3.76625 19 4 C19.33 4.99 19.66 5.98 20 7 C21.3153341 7.70151152 22.65117592 8.36525925 24 9 C25.75 10.4375 25.75 10.4375 27 12 C27 12.99 27 13.98 27 15 C27.66 15 28.32 15 29 15 C30.93985896 25.15665991 32.10381276 37.99738653 26 47 C24.515 47.495 24.515 47.495 23 48 C22.67 48.66 22.34 49.32 22 50 C21.34 50 20.68 50 20 50 C19.67 50.99 19.34 51.98 19 53 C17.33388095 53.042721 15.66617115 53.04063832 14 53 C13 52 13 52 12.5625 48.875 C12.01106897 45.07625288 11.0781486 41.68148302 10 38 C9.59084152 36.51902964 9.18472318 35.03721685 8.78125 33.5546875 C8.46607422 32.40419922 8.46607422 32.40419922 8.14453125 31.23046875 C7.71285457 29.65288671 7.28318465 28.07475425 6.85546875 26.49609375 C5.97960315 23.30966245 5.10078975 20.24717486 3.8515625 17.18359375 C2.64951952 14.10129087 2.87173853 11.27066758 3 8 C2.34 8 1.68 8 1 8 C0.67 5.36 0.34 2.72 0 0 Z " fill="#042D44" transform="translate(227,126)"/>
<path d="M0 0 C1.32 0 2.64 0 4 0 C4 0.66 4 1.32 4 2 C5.65 2.33 7.3 2.66 9 3 C9 3.66 9 4.32 9 5 C9.66 5 10.32 5 11 5 C11 5.66 11 6.32 11 7 C11.556875 7.0825 12.11375 7.165 12.6875 7.25 C15.73677919 8.23895541 17.65189963 9.84757466 20 12 C20 12.66 20 13.32 20 14 C20.598125 14.12375 21.19625 14.2475 21.8125 14.375 C24 15 24 15 27 17 C27 17.66 27 18.32 27 19 C27.66 19 28.32 19 29 19 C29 19.66 29 20.32 29 21 C29.99 21 30.98 21 32 21 C32 21.66 32 22.32 32 23 C32.66 23 33.32 23 34 23 C34 23.66 34 24.32 34 25 C34.886875 25.2475 35.77375 25.495 36.6875 25.75 C40.10427135 27.03934768 42.2797748 28.59980129 45 31 C44.8125 32.8125 44.8125 32.8125 44 35 C41.09303401 37.14197494 39.64478912 38 36 38 C36 38.66 36 39.32 36 40 C15.83012105 41.05295192 15.83012105 41.05295192 9 35 C7.74609375 32.32421875 7.74609375 32.32421875 7 30 C6.34 30 5.68 30 5 30 C5 29.34 5 28.68 5 28 C4.34 28 3.68 28 3 28 C2.67 25.69 2.34 23.38 2 21 C1.34 21 0.68 21 0 21 C0 19.02 0 17.04 0 15 C-0.66 15 -1.32 15 -2 15 C-2.21755666 9.5610835 -2.10428384 5.12919186 0 0 Z " fill="#032D44" transform="translate(43,187)"/>
<path d="M0 0 C0.33 0.99 0.66 1.98 1 3 C0.01 3.33 -0.98 3.66 -2 4 C-2.69159401 5.84725052 -2.69159401 5.84725052 -3 8 C-3.33333333 9.33333333 -3.66666667 10.66666667 -4 12 C-4.66 12 -5.32 12 -6 12 C-6 12.99 -6 13.98 -6 15 C12.81 15.33 31.62 15.66 51 16 C51.33 14.68 51.66 13.36 52 12 C52.495 13.485 52.495 13.485 53 15 C54.22348145 15.02187378 54.22348145 15.02187378 55.47167969 15.04418945 C58.55846423 15.10600378 61.64465219 15.18028478 64.73095703 15.26245117 C66.69933525 15.3112441 68.66804034 15.34623438 70.63671875 15.38085938 C78.80398537 15.60887951 86.17420592 16.63195642 94 19 C94 19.33 94 19.66 94 20 C92.47897677 19.85616078 90.95819103 19.70980986 89.4375 19.5625 C88.59058594 19.48128906 87.74367188 19.40007812 86.87109375 19.31640625 C84.85451629 19.09417118 82.84384499 18.81448383 80.84068298 18.49305725 C76.77123038 17.97063113 72.77274834 17.82645699 68.67797852 17.79467773 C67.87716354 17.78477814 67.07634857 17.77487854 66.25126648 17.76467896 C63.62717558 17.73331062 61.00306663 17.70840501 58.37890625 17.68359375 C56.55044609 17.66300287 54.72199047 17.64200586 52.89353943 17.62062073 C48.09815152 17.56562034 43.30272223 17.51611456 38.50726318 17.46777344 C33.60701853 17.41739681 28.70683342 17.36179538 23.80664062 17.30664062 C14.20447804 17.19932884 4.60226359 17.09782477 -5 17 C-4.77183594 17.60328125 -4.54367188 18.2065625 -4.30859375 18.828125 C-4.02113281 19.62734375 -3.73367187 20.4265625 -3.4375 21.25 C-3.14746094 22.03890625 -2.85742188 22.8278125 -2.55859375 23.640625 C-1.95477163 26.19103452 -2.1526068 27.55322229 -3 30 C-3 29.01 -3 28.02 -3 27 C-3.66 27 -4.32 27 -5 27 C-6.22899346 20.93184478 -7.27560214 15.20104812 -7 9 C-6.34 9 -5.68 9 -5 9 C-5 8.01 -5 7.02 -5 6 C-4.34 6 -3.68 6 -3 6 C-2.814375 5.071875 -2.814375 5.071875 -2.625 4.125 C-2 2 -2 2 0 0 Z " fill="#95515B" transform="translate(151,48)"/>
<path d="M0 0 C0.33 0 0.66 0 1 0 C1 3.63 1 7.26 1 11 C0.01 11 -0.98 11 -2 11 C-5.67792407 18.5682217 -5.34587637 25.7075756 -5.1875 34 C-5.17242476 35.36066226 -5.15874138 36.72134069 -5.14648438 38.08203125 C-5.11130983 41.38843843 -5.06208288 44.69400684 -5 48 C-11.63348838 38.04976742 -7.92895663 21.17761477 -6 10 C-5.34 10 -4.68 10 -4 10 C-3.8453125 8.9171875 -3.8453125 8.9171875 -3.6875 7.8125 C-2.93659472 4.74061475 -1.78158272 2.59814146 0 0 Z " fill="#D9C06C" transform="translate(39,190)"/>
<path d="M0 0 C0 3 0 3 -2 6 C-7.40660456 8.56784034 -13.00462752 8.34614588 -18.8671875 8.4140625 C-20.41927414 8.44311172 -20.41927414 8.44311172 -22.00271606 8.4727478 C-25.29339467 8.53231842 -28.58410868 8.57883905 -31.875 8.625 C-34.11199405 8.66320048 -36.34897372 8.70225341 -38.5859375 8.7421875 C-44.05716358 8.83800138 -49.52847695 8.92311431 -55 9 C-54.01 9.61875 -53.02 10.2375 -52 10.875 C-51.01 11.57625 -50.02 12.2775 -49 13 C-49 13.66 -49 14.32 -49 15 C-48.34 15 -47.68 15 -47 15 C-47.33 15.66 -47.66 16.32 -48 17 C-48.99 16.67 -49.98 16.34 -51 16 C-51 15.34 -51 14.68 -51 14 C-51.66 14 -52.32 14 -53 14 C-53 13.34 -53 12.68 -53 12 C-53.61875 11.731875 -54.2375 11.46375 -54.875 11.1875 C-57 10 -57 10 -59 7 C-58.41197601 6.98969254 -57.82395203 6.97938507 -57.21810913 6.96876526 C-51.08589224 6.86040168 -44.95381345 6.74582892 -38.82177734 6.62768555 C-36.53469742 6.58443223 -34.24758721 6.54275053 -31.96044922 6.50268555 C-28.66885254 6.44475001 -25.37740699 6.3811229 -22.0859375 6.31640625 C-21.06696381 6.29969376 -20.04799011 6.28298126 -18.99813843 6.26576233 C-14.23558827 6.16687022 -9.68302326 5.97476262 -5 5 C-5 4.34 -5 3.68 -5 3 C-2.5 1.375 -2.5 1.375 0 0 Z " fill="#DED0BF" transform="translate(121,115)"/>
<path d="M0 0 C0.33 0.66 0.66 1.32 1 2 C0.34 2 -0.32 2 -1 2 C-1.99 4.97 -2.98 7.94 -4 11 C-4.66 11 -5.32 11 -6 11 C-5.67 17.27 -5.34 23.54 -5 30 C-7 29 -7 29 -8.125 26.625 C-9.30959192 21.71740492 -9.16087778 17.02296193 -9 12 C-8.34 12 -7.68 12 -7 12 C-6.9175 11.113125 -6.835 10.22625 -6.75 9.3125 C-5.89879084 5.55299285 -4.62034678 3.77915568 -2 1 C-1.34 0.67 -0.68 0.34 0 0 Z " fill="#DECE95" transform="translate(186,152)"/>
<path d="M0 0 C4.29 0.33 8.58 0.66 13 1 C13 1.66 13 2.32 13 3 C15.68826864 2.88509088 18.37513469 2.75836801 21.0625 2.625 C22.19075195 2.57859375 22.19075195 2.57859375 23.34179688 2.53125 C27.0405824 2.3391053 30.38491429 1.99331138 33.93359375 0.8984375 C37 0 37 0 39 1 C37.35 1.33 35.7 1.66 34 2 C34 2.66 34 3.32 34 4 C29.4583875 4.05823729 24.9168716 4.09367675 20.375 4.125 C18.44720703 4.15013672 18.44720703 4.15013672 16.48046875 4.17578125 C15.23652344 4.18222656 13.99257812 4.18867188 12.7109375 4.1953125 C11.56931152 4.20578613 10.42768555 4.21625977 9.25146484 4.22705078 C5.86433183 3.99052625 3.15994958 3.2095701 0 2 C0 1.34 0 0.68 0 0 Z " fill="#DCCA88" transform="translate(70,276)"/>
<path d="M0 0 C0.99 0.495 0.99 0.495 2 1 C2 1.66 2 2.32 2 3 C10.12458688 7.97423686 17.56561997 9.35170625 27 10 C27 10.33 27 10.66 27 11 C24.75013201 11.16843931 22.50009983 11.33468654 20.25 11.5 C18.99703125 11.5928125 17.7440625 11.685625 16.453125 11.78125 C13.97265229 11.93838402 11.48544483 12 9 12 C7.29220027 10.37550757 5.62449243 8.70779973 4 7 C3.01 6.67 2.02 6.34 1 6 C0.67 4.02 0.34 2.04 0 0 Z " fill="#9D924A" transform="translate(145,253)"/>
<path d="M0 0 C0.66 0 1.32 0 2 0 C4.48398471 11.06703901 5.29234456 22.02551813 2 33 C1.01 33.495 1.01 33.495 0 34 C0.0721875 33.32195312 0.144375 32.64390625 0.21875 31.9453125 C1.29643925 21.13848417 0.9491517 10.81354969 0 0 Z " fill="#DAC880" transform="translate(249,204)"/>
<path d="M0 0 C-0.25587405 1.77305664 -0.53027739 3.54344608 -0.8125 5.3125 C-0.96332031 6.29863281 -1.11414063 7.28476563 -1.26953125 8.30078125 C-2.03436705 11.12699269 -2.75258762 12.1959128 -5 14 C-5 12.68 -5 11.36 -5 10 C-4.34 10 -3.68 10 -3 10 C-2.67 7.03 -2.34 4.06 -2 1 C-3.77174819 1.08723378 -5.54247377 1.19541655 -7.3125 1.3125 C-8.29863281 1.37050781 -9.28476563 1.42851563 -10.30078125 1.48828125 C-13.32936022 2.06244021 -14.00675673 2.77498426 -16 5 C-19.1875 5.6875 -19.1875 5.6875 -22 6 C-22 5.34 -22 4.68 -22 4 C-21.01 4 -20.02 4 -19 4 C-18.75507812 3.35675781 -18.51015625 2.71351562 -18.2578125 2.05078125 C-17 0 -17 0 -15.1171875 -0.64453125 C-9.89404808 -1.03581173 -5.17474049 -0.84677572 0 0 Z " fill="#73554E" transform="translate(80,65)"/>
<path d="M0 0 C0.99 0.33 1.98 0.66 3 1 C3.13277344 1.85464844 3.26554688 2.70929688 3.40234375 3.58984375 C3.57894531 4.69457031 3.75554687 5.79929688 3.9375 6.9375 C4.19853516 8.59072266 4.19853516 8.59072266 4.46484375 10.27734375 C4.71845136 12.90426929 4.71845136 12.90426929 6 14 C6.04063832 15.66617115 6.042721 17.33388095 6 19 C2.74456771 18.65120368 1.98126893 17.97866739 -0.25 15.4375 C-0.8275 14.633125 -1.405 13.82875 -2 13 C0.475 13.99 0.475 13.99 3 15 C2.690625 14.38125 2.38125 13.7625 2.0625 13.125 C0.5960722 8.81197706 0.33380974 4.5240004 0 0 Z " fill="#DED09A" transform="translate(186,201)"/>
<path d="M0 0 C0.33 0.99 0.66 1.98 1 3 C0.01 3.33 -0.98 3.66 -2 4 C-2.69159401 5.84725052 -2.69159401 5.84725052 -3 8 C-3.33333333 9.33333333 -3.66666667 10.66666667 -4 12 C-4.66 12 -5.32 12 -6 12 C-6 12.99 -6 13.98 -6 15 C-4.35 15 -2.7 15 -1 15 C-2.32 15.33 -3.64 15.66 -5 16 C-4.86722656 16.59167969 -4.73445312 17.18335937 -4.59765625 17.79296875 C-3.68994822 21.85446525 -2.7908887 25.91374171 -2 30 C-2.33 29.01 -2.66 28.02 -3 27 C-3.66 27 -4.32 27 -5 27 C-6.22899346 20.93184478 -7.27560214 15.20104812 -7 9 C-6.34 9 -5.68 9 -5 9 C-5 8.01 -5 7.02 -5 6 C-4.34 6 -3.68 6 -3 6 C-2.814375 5.071875 -2.814375 5.071875 -2.625 4.125 C-2 2 -2 2 0 0 Z " fill="#866B56" transform="translate(151,48)"/>
<path d="M0 0 C0.66 0.33 1.32 0.66 2 1 C3.80009565 11.51881977 3.94068256 20.99315871 -2 30 C-2.33 29.34 -2.66 28.68 -3 28 C-2.52949219 26.8553125 -2.05898437 25.710625 -1.57421875 24.53125 C0.42513561 19.4970191 0.33919744 14.85219679 0.1875 9.5 C0.17396484 8.5821875 0.16042969 7.664375 0.14648438 6.71875 C0.11148097 4.47853197 0.06238869 2.23959406 0 0 Z " fill="#473548" transform="translate(256,143)"/>
<path d="M0 0 C3.95544111 5.93316166 2.45951115 14.93134679 1.4296875 21.80859375 C-0.43782453 30.62521636 -0.43782453 30.62521636 -4 33 C-3.52414286 30.43591543 -2.98567065 27.95151781 -2.24609375 25.44921875 C0.26942525 16.85756689 0.30337878 8.85416578 0 0 Z " fill="#CDADAC" transform="translate(284,114)"/>
<path d="M0 0 C0.84023188 4.35332736 1.10770995 8.44442519 1.0625 12.875 C1.05347656 14.02742187 1.04445312 15.17984375 1.03515625 16.3671875 C1.02355469 17.23601562 1.01195312 18.10484375 1 19 C0.67 19 0.34 19 0 19 C-0.66 13.72 -1.32 8.44 -2 3 C-2.99 2.67 -3.98 2.34 -5 2 C-5 2.66 -5 3.32 -5 4 C-6.98 4.66 -8.96 5.32 -11 6 C-10.34 5.01 -9.68 4.02 -9 3 C-8.01 3 -7.02 3 -6 3 C-6 2.34 -6 1.68 -6 1 C-4 0 -4 0 0 0 Z " fill="#6A6F47" transform="translate(194,222)"/>
<path d="M0 0 C0.66 0.33 1.32 0.66 2 1 C1.67 1.99 1.34 2.98 1 4 C0.34 4 -0.32 4 -1 4 C-1.1546875 5.051875 -1.1546875 5.051875 -1.3125 6.125 C-2.10571772 9.44209227 -3.2659086 12.06538379 -5 15 C-5.99 15.33 -6.98 15.66 -8 16 C-8.33 16.66 -8.66 17.32 -9 18 C-9.66 17.67 -10.32 17.34 -11 17 C-10.01 15.515 -10.01 15.515 -9 14 C-8.34 14 -7.68 14 -7 14 C-6.87625 13.4225 -6.7525 12.845 -6.625 12.25 C-5.99351176 9.97664233 -5.11141809 8.0746471 -4 6 C-3.34 6 -2.68 6 -2 6 C-2 5.01 -2 4.02 -2 3 C-1.34 3 -0.68 3 0 3 C0 2.01 0 1.02 0 0 Z " fill="#BB8589" transform="translate(278,148)"/>
<path d="M0 0 C0.66 0 1.32 0 2 0 C2 1.98 2 3.96 2 6 C2.66 6 3.32 6 4 6 C4.33 8.31 4.66 10.62 5 13 C5.66 13 6.32 13 7 13 C7 13.66 7 14.32 7 15 C7.66 15 8.32 15 9 15 C9.33 15.99 9.66 16.98 10 18 C7.75 17.5625 7.75 17.5625 5 16 C1.87168984 11.01940092 0.49390231 5.80335213 0 0 Z " fill="#3B5147" transform="translate(41,202)"/>
<path d="M0 0 C2.97 0.495 2.97 0.495 6 1 C3.01390284 4.60820074 0.1198842 5.92932213 -4.1953125 7.38671875 C-6.06872344 7.97784302 -6.06872344 7.97784302 -8 9 C-8 8.01 -8 7.02 -8 6 C-7.360625 5.87625 -6.72125 5.7525 -6.0625 5.625 C-5.381875 5.41875 -4.70125 5.2125 -4 5 C-3.67 4.34 -3.34 3.68 -3 3 C-2.34 3 -1.68 3 -1 3 C-0.67 2.01 -0.34 1.02 0 0 Z " fill="#866165" transform="translate(250,173)"/>
<path d="M0 0 C4.95 0 9.9 0 15 0 C14 3 14 3 10.9375 4.6875 C9.968125 5.120625 8.99875 5.55375 8 6 C8 5.34 8 4.68 8 4 C8.66 3.67 9.32 3.34 10 3 C6.7 2.34 3.4 1.68 0 1 C0 0.67 0 0.34 0 0 Z " fill="#DDCDB7" transform="translate(209,124)"/>
<path d="M0 0 C2.31 0 4.62 0 7 0 C7 0.66 7 1.32 7 2 C9.64 2 12.28 2 15 2 C15 2.66 15 3.32 15 4 C8.07 3.505 8.07 3.505 1 3 C0.67 4.32 0.34 5.64 0 7 C0 4.69 0 2.38 0 0 Z " fill="#5A3E47" transform="translate(226,123)"/>
<path d="M0 0 C0.99 0.33 1.98 0.66 3 1 C3 2.65 3 4.3 3 6 C3.66 6 4.32 6 5 6 C5.33 9.63 5.66 13.26 6 17 C3.27835324 14.27835324 2.89427524 11.70485455 2 8 C2 6.68 2 5.36 2 4 C1.34 4 0.68 4 0 4 C0 2.68 0 1.36 0 0 Z " fill="#B3747A" transform="translate(153,93)"/>
<path d="M0 0 C0.66 0.33 1.32 0.66 2 1 C0.68 1.33 -0.64 1.66 -2 2 C-2 2.66 -2 3.32 -2 4 C-7.61 4 -13.22 4 -19 4 C-19.33 3.34 -19.66 2.68 -20 2 C-18.58847656 2.03480469 -18.58847656 2.03480469 -17.1484375 2.0703125 C-15.90320313 2.08835938 -14.65796875 2.10640625 -13.375 2.125 C-11.53035156 2.15980469 -11.53035156 2.15980469 -9.6484375 2.1953125 C-6.05298447 2.00283643 -3.37220479 1.17681047 0 0 Z " fill="#415547" transform="translate(81,223)"/>
<path d="M0 0 C0.99 0.33 1.98 0.66 3 1 C3.66 5.95 4.32 10.9 5 16 C3 15 3 15 2.1484375 12.63671875 C1.89320313 11.66347656 1.63796875 10.69023437 1.375 9.6875 C1.11460937 8.72199219 0.85421875 7.75648438 0.5859375 6.76171875 C0 4 0 4 0 0 Z " fill="#DCC882" transform="translate(181,183)"/>
<path d="M0 0 C1.49544981 2.99089963 1.05405455 5.74152346 1 9.0625 C0.9624415 11.37469498 0.95323333 13.68797294 1 16 C1.33 16.33 1.66 16.66 2 17 C2.04063832 18.66617115 2.042721 20.33388095 2 22 C-0.61062213 19.43746828 -1.22273514 17.46831753 -1.328125 13.92578125 C-1.31754585 12.38783673 -1.29103242 10.84993345 -1.25 9.3125 C-1.24484375 8.52810547 -1.2396875 7.74371094 -1.234375 6.93554688 C-1.15442868 1.15442868 -1.15442868 1.15442868 0 0 Z " fill="#603A49" transform="translate(46,86)"/>
<path d="M0 0 C1.258125 0.309375 2.51625 0.61875 3.8125 0.9375 C9.17065177 2.14052452 14.5304832 2.61151096 20 3 C20 3.33 20 3.66 20 4 C15.05 4 10.1 4 5 4 C5 3.34 5 2.68 5 2 C3.35 1.67 1.7 1.34 0 1 C0 0.67 0 0.34 0 0 Z " fill="#5F6844" transform="translate(152,260)"/>
<path d="M0 0 C2.08351615 3.58727128 2.80141379 7.20694042 3.625 11.25 C3.88539063 12.51328125 4.14578125 13.7765625 4.4140625 15.078125 C4.60742188 16.04234375 4.80078125 17.0065625 5 18 C3 17 3 17 2.1484375 14.9609375 C0.59935151 9.7816702 -0.35252828 5.40543358 0 0 Z " fill="#8A8140" transform="translate(233,148)"/>
<path d="M0 0 C0.33 0.66 0.66 1.32 1 2 C0.34 2 -0.32 2 -1 2 C-1.165 2.61875 -1.33 3.2375 -1.5 3.875 C-3.90181375 7.27756949 -7.00162134 7.22612026 -11 8 C-8.47211993 5.20127563 -6.79588866 3.54226981 -3 3 C-3 2.34 -3 1.68 -3 1 C-2.01 0.67 -1.02 0.34 0 0 Z " fill="#DBC270" transform="translate(127,194)"/>
<path d="M0 0 C0.66 0 1.32 0 2 0 C1.67 2.64 1.34 5.28 1 8 C0.34 8 -0.32 8 -1 8 C-1 9.98 -1 11.96 -1 14 C-1.99 14.495 -1.99 14.495 -3 15 C-2.67 11.7 -2.34 8.4 -2 5 C-1.34 5 -0.68 5 0 5 C0 3.35 0 1.7 0 0 Z " fill="#6C6F42" transform="translate(68,94)"/>
<path d="M0 0 C1.55955444 3.11910889 0.62673502 5.63842127 0 9 C-1.0625 11.9375 -1.0625 11.9375 -2 14 C-2.66 14 -3.32 14 -4 14 C-3.53328373 8.58609132 -2.75702189 4.79482068 0 0 Z " fill="#CBA9A8" transform="translate(102,183)"/>
<path d="M0 0 C0.33 0.99 0.66 1.98 1 3 C-1.6598561 6.44216672 -4.90288286 6.99504674 -9 8 C-9 7.34 -9 6.68 -9 6 C-4.61538462 3 -4.61538462 3 -2 3 C-2 2.34 -2 1.68 -2 1 C-1.34 0.67 -0.68 0.34 0 0 Z " fill="#C7A3A3" transform="translate(266,166)"/>
<path d="M0 0 C0.75 1.75 0.75 1.75 1 4 C-0.8125 6.125 -0.8125 6.125 -3 8 C-3.66 8.66 -4.32 9.32 -5 10 C-5 8.02 -5 6.04 -5 4 C-4.0409375 3.8453125 -4.0409375 3.8453125 -3.0625 3.6875 C-2.381875 3.460625 -1.70125 3.23375 -1 3 C-0.67 2.01 -0.34 1.02 0 0 Z " fill="#603546" transform="translate(52,75)"/>
<path d="M0 0 C0.66 0.33 1.32 0.66 2 1 C-1.75 4 -1.75 4 -4 4 C-4 4.66 -4 5.32 -4 6 C-5.98 6.33 -7.96 6.66 -10 7 C-9.67 5.68 -9.34 4.36 -9 3 C-8.67 3.66 -8.34 4.32 -8 5 C-7.01 5 -6.02 5 -5 5 C-5 4.34 -5 3.68 -5 3 C-2.625 1.3125 -2.625 1.3125 0 0 Z " fill="#D6BD90" transform="translate(101,211)"/>
<path d="M0 0 C0 3 0 3 -2 6 C-4.1640625 6.51171875 -4.1640625 6.51171875 -6.625 6.6875 C-7.85089844 6.78611328 -7.85089844 6.78611328 -9.1015625 6.88671875 C-9.72804688 6.92410156 -10.35453125 6.96148437 -11 7 C-8 5 -8 5 -5 5 C-5 4.34 -5 3.68 -5 3 C-2.5 1.375 -2.5 1.375 0 0 Z " fill="#E0D3A3" transform="translate(121,115)"/>
<path d="M0 0 C0.33 0 0.66 0 1 0 C1.29787234 8.78723404 1.29787234 8.78723404 -1 13 C-1.99 13.495 -1.99 13.495 -3 14 C-2.09276387 9.31261335 -1.0452733 4.65806256 0 0 Z " fill="#C39799" transform="translate(283,133)"/>
<path d="M0 0 C0.33 0.66 0.66 1.32 1 2 C-3.38512875 5.31558515 -6.37458159 6.54996653 -12 7 C-10.71106389 4.42212778 -9.80050191 4.40163434 -7.125 3.5 C-4.32096296 2.54807599 -2.52418158 1.68278772 0 0 Z " fill="#E3D9B6" transform="translate(120,271)"/>
<path d="M0 0 C0.33 0.66 0.66 1.32 1 2 C1.66 2 2.32 2 3 2 C3.33 5.63 3.66 9.26 4 13 C3.34 12.67 2.68 12.34 2 12 C1.59802999 9.67750658 1.27313343 7.34114367 1 5 C0.68033861 3.33065717 0.35268934 1.6626783 0 0 Z " fill="#606743" transform="translate(238,166)"/>
<path d="M0 0 C0.66 0.33 1.32 0.66 2 1 C-0.74395564 3.94721162 -3.38337216 6.19168608 -7 8 C-7.66 7.67 -8.32 7.34 -9 7 C-5.25 4 -5.25 4 -3 4 C-3 3.34 -3 2.68 -3 2 C-2.01 1.34 -1.02 0.68 0 0 Z " fill="#DBC782" transform="translate(196,144)"/>
<path d="M0 0 C0.75 1.5625 0.75 1.5625 1 4 C-0.13084437 6.50286409 -1.52139516 8.67007722 -3 11 C-4 9 -4 9 -3.4765625 7.08984375 C-3.05503906 6.02443359 -3.05503906 6.02443359 -2.625 4.9375 C-2.34914062 4.22464844 -2.07328125 3.51179687 -1.7890625 2.77734375 C-1 1 -1 1 0 0 Z " fill="#633947" transform="translate(257,162)"/>
<path d="M0 0 C0.66 0 1.32 0 2 0 C2.33 1.65 2.66 3.3 3 5 C1.35 5.33 -0.3 5.66 -2 6 C-1.125 1.125 -1.125 1.125 0 0 Z " fill="#DCCCB8" transform="translate(143,66)"/>
<path d="M0 0 C4.35535069 1.16142685 6.64619703 2.07699505 9 6 C7.02 5.34 5.04 4.68 3 4 C3 3.34 3 2.68 3 2 C2.01 1.67 1.02 1.34 0 1 C0 0.67 0 0.34 0 0 Z " fill="#D9C376" transform="translate(155,267)"/>
<path d="M0 0 C0 3.69418201 -1.28179295 5.77836178 -3 9 C-3.99 8.67 -4.98 8.34 -6 8 C-4.02 5.36 -2.04 2.72 0 0 Z " fill="#E1D3A0" transform="translate(243,252)"/>
<path d="M0 0 C1.98 0.99 1.98 0.99 4 2 C4 2.66 4 3.32 4 4 C4.66 4 5.32 4 6 4 C6.33 4.99 6.66 5.98 7 7 C4.625 6.3125 4.625 6.3125 2 5 C0.6875 2.375 0.6875 2.375 0 0 Z " fill="#7F7C42" transform="translate(44,213)"/>
<path d="M0 0 C0.66 0 1.32 0 2 0 C2 0.66 2 1.32 2 2 C2.639375 2.103125 3.27875 2.20625 3.9375 2.3125 C4.618125 2.539375 5.29875 2.76625 6 3 C6.33 3.99 6.66 4.98 7 6 C5.68 5.67 4.36 5.34 3 5 C3 4.34 3 3.68 3 3 C2.01 3 1.02 3 0 3 C0 2.01 0 1.02 0 0 Z " fill="#DBC476" transform="translate(157,195)"/>
</svg>
