<?xml version="1.0" encoding="UTF-8"?>
<svg width="800" height="800" viewBox="0 0 800 800" xmlns="http://www.w3.org/2000/svg">
  <title>Right Wing</title>
  <desc>Stylized right angel wing with long slender feathers.</desc>
  <g transform="translate(400,400) rotate(8)">
    <path d="M0 0
             C 140 40 260 140 340 270
               390 350 420 440 410 520
               390 680 210 640 150 540
               90 430 40 260 0 0 Z"
          fill="none" stroke="#000000" stroke-width="20"
          stroke-linecap="round" stroke-linejoin="round"/>
    <path d="M 40 0
             C 160 140 240 300 260 420
               260 480 200 520 150 480
               90 430 60 300 40 200"
          fill="none" stroke="#000000" stroke-width="14" stroke-linecap="round"/>
    <path d="M 10 10
             C 110 140 150 280 150 360
               150 420 110 450 80 420
               50 390 30 300 20 220"
          fill="none" stroke="#000000" stroke-width="12" stroke-linecap="round"/>
    <path d="M 10 60
             C 70 130 90 210 80 260
               70 300 40 320 20 300
               5 280 0 240 -2 200"
          fill="none" stroke="#000000" stroke-width="10" stroke-linecap="round"/>
  </g>
</svg>
